<?xml version='1.0' encoding='UTF-8'?>
<svg width="73.8mm" height="73.8mm" version="1.1" viewBox="0 0 73.8 73.8" xmlns="http://www.w3.org/2000/svg"><path d="M7.2,7.2H9V9H7.2zM9,7.2H10.8V9H9zM10.8,7.2H12.6V9H10.8zM12.6,7.2H14.4V9H12.6zM14.4,7.2H16.2V9H14.4zM16.2,7.2H18V9H16.2zM18,7.2H19.8V9H18zM23.4,7.2H25.2V9H23.4zM25.2,7.2H27V9H25.2zM28.8,7.2H30.6V9H28.8zM36,7.2H37.8V9H36zM37.8,7.2H39.6V9H37.8zM39.6,7.2H41.4V9H39.6zM41.4,7.2H43.2V9H41.4zM43.2,7.2H45V9H43.2zM48.6,7.2H50.4V9H48.6zM54,7.2H55.8V9H54zM55.8,7.2H57.6V9H55.8zM57.6,7.2H59.4V9H57.6zM59.4,7.2H61.2V9H59.4zM61.2,7.2H63V9H61.2zM63,7.2H64.8V9H63zM64.8,7.2H66.6V9H64.8zM7.2,9H9V10.8H7.2zM18,9H19.8V10.8H18zM23.4,9H25.2V10.8H23.4zM25.2,9H27V10.8H25.2zM28.8,9H30.6V10.8H28.8zM34.2,9H36V10.8H34.2zM37.8,9H39.6V10.8H37.8zM45,9H46.8V10.8H45zM46.8,9H48.6V10.8H46.8zM54,9H55.8V10.8H54zM64.8,9H66.6V10.8H64.8zM7.2,10.8H9V12.6H7.2zM10.8,10.8H12.6V12.6H10.8zM12.6,10.8H14.4V12.6H12.6zM14.4,10.8H16.2V12.6H14.4zM18,10.8H19.8V12.6H18zM21.6,10.8H23.4V12.6H21.6zM23.4,10.8H25.2V12.6H23.4zM25.2,10.8H27V12.6H25.2zM28.8,10.8H30.6V12.6H28.8zM32.4,10.8H34.2V12.6H32.4zM36,10.8H37.8V12.6H36zM41.4,10.8H43.2V12.6H41.4zM43.2,10.8H45V12.6H43.2zM45,10.8H46.8V12.6H45zM46.8,10.8H48.6V12.6H46.8zM50.4,10.8H52.2V12.6H50.4zM54,10.8H55.8V12.6H54zM57.6,10.8H59.4V12.6H57.6zM59.4,10.8H61.2V12.6H59.4zM61.2,10.8H63V12.6H61.2zM64.8,10.8H66.6V12.6H64.8zM7.2,12.6H9V14.4H7.2zM10.8,12.6H12.6V14.4H10.8zM12.6,12.6H14.4V14.4H12.6zM14.4,12.6H16.2V14.4H14.4zM18,12.6H19.8V14.4H18zM21.6,12.6H23.4V14.4H21.6zM23.4,12.6H25.2V14.4H23.4zM28.8,12.6H30.6V14.4H28.8zM39.6,12.6H41.4V14.4H39.6zM46.8,12.6H48.6V14.4H46.8zM50.4,12.6H52.2V14.4H50.4zM54,12.6H55.8V14.4H54zM57.6,12.6H59.4V14.4H57.6zM59.4,12.6H61.2V14.4H59.4zM61.2,12.6H63V14.4H61.2zM64.8,12.6H66.6V14.4H64.8zM7.2,14.4H9V16.2H7.2zM10.8,14.4H12.6V16.2H10.8zM12.6,14.4H14.4V16.2H12.6zM14.4,14.4H16.2V16.2H14.4zM18,14.4H19.8V16.2H18zM21.6,14.4H23.4V16.2H21.6zM23.4,14.4H25.2V16.2H23.4zM27,14.4H28.8V16.2H27zM28.8,14.4H30.6V16.2H28.8zM32.4,14.4H34.2V16.2H32.4zM34.2,14.4H36V16.2H34.2zM36,14.4H37.8V16.2H36zM37.8,14.4H39.6V16.2H37.8zM39.6,14.4H41.4V16.2H39.6zM41.4,14.4H43.2V16.2H41.4zM45,14.4H46.8V16.2H45zM46.8,14.4H48.6V16.2H46.8zM48.6,14.4H50.4V16.2H48.6zM50.4,14.4H52.2V16.2H50.4zM54,14.4H55.8V16.2H54zM57.6,14.4H59.4V16.2H57.6zM59.4,14.4H61.2V16.2H59.4zM61.2,14.4H63V16.2H61.2zM64.8,14.4H66.6V16.2H64.8zM7.2,16.2H9V18H7.2zM18,16.2H19.8V18H18zM21.6,16.2H23.4V18H21.6zM27,16.2H28.8V18H27zM28.8,16.2H30.6V18H28.8zM30.6,16.2H32.4V18H30.6zM32.4,16.2H34.2V18H32.4zM37.8,16.2H39.6V18H37.8zM50.4,16.2H52.2V18H50.4zM54,16.2H55.8V18H54zM64.8,16.2H66.6V18H64.8zM7.2,18H9V19.8H7.2zM9,18H10.8V19.8H9zM10.8,18H12.6V19.8H10.8zM12.6,18H14.4V19.8H12.6zM14.4,18H16.2V19.8H14.4zM16.2,18H18V19.8H16.2zM18,18H19.8V19.8H18zM21.6,18H23.4V19.8H21.6zM25.2,18H27V19.8H25.2zM28.8,18H30.6V19.8H28.8zM32.4,18H34.2V19.8H32.4zM36,18H37.8V19.8H36zM39.6,18H41.4V19.8H39.6zM43.2,18H45V19.8H43.2zM46.8,18H48.6V19.8H46.8zM50.4,18H52.2V19.8H50.4zM54,18H55.8V19.8H54zM55.8,18H57.6V19.8H55.8zM57.6,18H59.4V19.8H57.6zM59.4,18H61.2V19.8H59.4zM61.2,18H63V19.8H61.2zM63,18H64.8V19.8H63zM64.8,18H66.6V19.8H64.8zM21.6,19.8H23.4V21.6H21.6zM23.4,19.8H25.2V21.6H23.4zM27,19.8H28.8V21.6H27zM28.8,19.8H30.6V21.6H28.8zM32.4,19.8H34.2V21.6H32.4zM36,19.8H37.8V21.6H36zM41.4,19.8H43.2V21.6H41.4zM43.2,19.8H45V21.6H43.2zM45,19.8H46.8V21.6H45zM48.6,19.8H50.4V21.6H48.6zM50.4,19.8H52.2V21.6H50.4zM7.2,21.6H9V23.4H7.2zM10.8,21.6H12.6V23.4H10.8zM12.6,21.6H14.4V23.4H12.6zM14.4,21.6H16.2V23.4H14.4zM16.2,21.6H18V23.4H16.2zM18,21.6H19.8V23.4H18zM25.2,21.6H27V23.4H25.2zM28.8,21.6H30.6V23.4H28.8zM30.6,21.6H32.4V23.4H30.6zM32.4,21.6H34.2V23.4H32.4zM37.8,21.6H39.6V23.4H37.8zM41.4,21.6H43.2V23.4H41.4zM43.2,21.6H45V23.4H43.2zM46.8,21.6H48.6V23.4H46.8zM50.4,21.6H52.2V23.4H50.4zM54,21.6H55.8V23.4H54zM55.8,21.6H57.6V23.4H55.8zM57.6,21.6H59.4V23.4H57.6zM59.4,21.6H61.2V23.4H59.4zM61.2,21.6H63V23.4H61.2zM7.2,23.4H9V25.2H7.2zM10.8,23.4H12.6V25.2H10.8zM16.2,23.4H18V25.2H16.2zM25.2,23.4H27V25.2H25.2zM30.6,23.4H32.4V25.2H30.6zM37.8,23.4H39.6V25.2H37.8zM41.4,23.4H43.2V25.2H41.4zM43.2,23.4H45V25.2H43.2zM45,23.4H46.8V25.2H45zM48.6,23.4H50.4V25.2H48.6zM54,23.4H55.8V25.2H54zM55.8,23.4H57.6V25.2H55.8zM59.4,23.4H61.2V25.2H59.4zM61.2,23.4H63V25.2H61.2zM63,23.4H64.8V25.2H63zM64.8,23.4H66.6V25.2H64.8zM7.2,25.2H9V27H7.2zM9,25.2H10.8V27H9zM10.8,25.2H12.6V27H10.8zM12.6,25.2H14.4V27H12.6zM18,25.2H19.8V27H18zM23.4,25.2H25.2V27H23.4zM25.2,25.2H27V27H25.2zM28.8,25.2H30.6V27H28.8zM30.6,25.2H32.4V27H30.6zM32.4,25.2H34.2V27H32.4zM34.2,25.2H36V27H34.2zM37.8,25.2H39.6V27H37.8zM43.2,25.2H45V27H43.2zM45,25.2H46.8V27H45zM52.2,25.2H54V27H52.2zM54,25.2H55.8V27H54zM57.6,25.2H59.4V27H57.6zM61.2,25.2H63V27H61.2zM63,25.2H64.8V27H63zM7.2,27H9V28.8H7.2zM9,27H10.8V28.8H9zM12.6,27H14.4V28.8H12.6zM16.2,27H18V28.8H16.2zM27,27H28.8V28.8H27zM28.8,27H30.6V28.8H28.8zM30.6,27H32.4V28.8H30.6zM34.2,27H36V28.8H34.2zM37.8,27H39.6V28.8H37.8zM39.6,27H41.4V28.8H39.6zM41.4,27H43.2V28.8H41.4zM43.2,27H45V28.8H43.2zM45,27H46.8V28.8H45zM50.4,27H52.2V28.8H50.4zM52.2,27H54V28.8H52.2zM54,27H55.8V28.8H54zM57.6,27H59.4V28.8H57.6zM59.4,27H61.2V28.8H59.4zM61.2,27H63V28.8H61.2zM9,28.8H10.8V30.6H9zM10.8,28.8H12.6V30.6H10.8zM12.6,28.8H14.4V30.6H12.6zM16.2,28.8H18V30.6H16.2zM18,28.8H19.8V30.6H18zM19.8,28.8H21.6V30.6H19.8zM23.4,28.8H25.2V30.6H23.4zM27,28.8H28.8V30.6H27zM32.4,28.8H34.2V30.6H32.4zM36,28.8H37.8V30.6H36zM41.4,28.8H43.2V30.6H41.4zM46.8,28.8H48.6V30.6H46.8zM52.2,28.8H54V30.6H52.2zM55.8,28.8H57.6V30.6H55.8zM57.6,28.8H59.4V30.6H57.6zM59.4,28.8H61.2V30.6H59.4zM64.8,28.8H66.6V30.6H64.8zM9,30.6H10.8V32.4H9zM14.4,30.6H16.2V32.4H14.4zM16.2,30.6H18V32.4H16.2zM21.6,30.6H23.4V32.4H21.6zM25.2,30.6H27V32.4H25.2zM27,30.6H28.8V32.4H27zM30.6,30.6H32.4V32.4H30.6zM34.2,30.6H36V32.4H34.2zM37.8,30.6H39.6V32.4H37.8zM39.6,30.6H41.4V32.4H39.6zM41.4,30.6H43.2V32.4H41.4zM43.2,30.6H45V32.4H43.2zM45,30.6H46.8V32.4H45zM48.6,30.6H50.4V32.4H48.6zM54,30.6H55.8V32.4H54zM55.8,30.6H57.6V32.4H55.8zM59.4,30.6H61.2V32.4H59.4zM61.2,30.6H63V32.4H61.2zM63,30.6H64.8V32.4H63zM64.8,30.6H66.6V32.4H64.8zM7.2,32.4H9V34.2H7.2zM9,32.4H10.8V34.2H9zM10.8,32.4H12.6V34.2H10.8zM14.4,32.4H16.2V34.2H14.4zM18,32.4H19.8V34.2H18zM21.6,32.4H23.4V34.2H21.6zM23.4,32.4H25.2V34.2H23.4zM25.2,32.4H27V34.2H25.2zM30.6,32.4H32.4V34.2H30.6zM34.2,32.4H36V34.2H34.2zM36,32.4H37.8V34.2H36zM39.6,32.4H41.4V34.2H39.6zM43.2,32.4H45V34.2H43.2zM45,32.4H46.8V34.2H45zM46.8,32.4H48.6V34.2H46.8zM52.2,32.4H54V34.2H52.2zM54,32.4H55.8V34.2H54zM57.6,32.4H59.4V34.2H57.6zM59.4,32.4H61.2V34.2H59.4zM61.2,32.4H63V34.2H61.2zM63,32.4H64.8V34.2H63zM7.2,34.2H9V36H7.2zM16.2,34.2H18V36H16.2zM19.8,34.2H21.6V36H19.8zM23.4,34.2H25.2V36H23.4zM27,34.2H28.8V36H27zM28.8,34.2H30.6V36H28.8zM30.6,34.2H32.4V36H30.6zM32.4,34.2H34.2V36H32.4zM34.2,34.2H36V36H34.2zM41.4,34.2H43.2V36H41.4zM43.2,34.2H45V36H43.2zM45,34.2H46.8V36H45zM46.8,34.2H48.6V36H46.8zM52.2,34.2H54V36H52.2zM54,34.2H55.8V36H54zM57.6,34.2H59.4V36H57.6zM59.4,34.2H61.2V36H59.4zM61.2,34.2H63V36H61.2zM7.2,36H9V37.8H7.2zM10.8,36H12.6V37.8H10.8zM12.6,36H14.4V37.8H12.6zM14.4,36H16.2V37.8H14.4zM16.2,36H18V37.8H16.2zM18,36H19.8V37.8H18zM23.4,36H25.2V37.8H23.4zM27,36H28.8V37.8H27zM28.8,36H30.6V37.8H28.8zM32.4,36H34.2V37.8H32.4zM34.2,36H36V37.8H34.2zM37.8,36H39.6V37.8H37.8zM39.6,36H41.4V37.8H39.6zM41.4,36H43.2V37.8H41.4zM46.8,36H48.6V37.8H46.8zM55.8,36H57.6V37.8H55.8zM57.6,36H59.4V37.8H57.6zM64.8,36H66.6V37.8H64.8zM9,37.8H10.8V39.6H9zM10.8,37.8H12.6V39.6H10.8zM12.6,37.8H14.4V39.6H12.6zM19.8,37.8H21.6V39.6H19.8zM21.6,37.8H23.4V39.6H21.6zM25.2,37.8H27V39.6H25.2zM36,37.8H37.8V39.6H36zM39.6,37.8H41.4V39.6H39.6zM41.4,37.8H43.2V39.6H41.4zM43.2,37.8H45V39.6H43.2zM46.8,37.8H48.6V39.6H46.8zM48.6,37.8H50.4V39.6H48.6zM50.4,37.8H52.2V39.6H50.4zM52.2,37.8H54V39.6H52.2zM54,37.8H55.8V39.6H54zM55.8,37.8H57.6V39.6H55.8zM59.4,37.8H61.2V39.6H59.4zM61.2,37.8H63V39.6H61.2zM64.8,37.8H66.6V39.6H64.8zM9,39.6H10.8V41.4H9zM12.6,39.6H14.4V41.4H12.6zM14.4,39.6H16.2V41.4H14.4zM16.2,39.6H18V41.4H16.2zM18,39.6H19.8V41.4H18zM21.6,39.6H23.4V41.4H21.6zM25.2,39.6H27V41.4H25.2zM27,39.6H28.8V41.4H27zM28.8,39.6H30.6V41.4H28.8zM30.6,39.6H32.4V41.4H30.6zM34.2,39.6H36V41.4H34.2zM36,39.6H37.8V41.4H36zM39.6,39.6H41.4V41.4H39.6zM46.8,39.6H48.6V41.4H46.8zM55.8,39.6H57.6V41.4H55.8zM57.6,39.6H59.4V41.4H57.6zM61.2,39.6H63V41.4H61.2zM63,39.6H64.8V41.4H63zM14.4,41.4H16.2V43.2H14.4zM16.2,41.4H18V43.2H16.2zM27,41.4H28.8V43.2H27zM43.2,41.4H45V43.2H43.2zM45,41.4H46.8V43.2H45zM46.8,41.4H48.6V43.2H46.8zM50.4,41.4H52.2V43.2H50.4zM52.2,41.4H54V43.2H52.2zM54,41.4H55.8V43.2H54zM55.8,41.4H57.6V43.2H55.8zM57.6,41.4H59.4V43.2H57.6zM59.4,41.4H61.2V43.2H59.4zM61.2,41.4H63V43.2H61.2zM7.2,43.2H9V45H7.2zM9,43.2H10.8V45H9zM10.8,43.2H12.6V45H10.8zM12.6,43.2H14.4V45H12.6zM14.4,43.2H16.2V45H14.4zM18,43.2H19.8V45H18zM21.6,43.2H23.4V45H21.6zM28.8,43.2H30.6V45H28.8zM30.6,43.2H32.4V45H30.6zM32.4,43.2H34.2V45H32.4zM34.2,43.2H36V45H34.2zM39.6,43.2H41.4V45H39.6zM46.8,43.2H48.6V45H46.8zM48.6,43.2H50.4V45H48.6zM50.4,43.2H52.2V45H50.4zM52.2,43.2H54V45H52.2zM55.8,43.2H57.6V45H55.8zM57.6,43.2H59.4V45H57.6zM59.4,43.2H61.2V45H59.4zM63,43.2H64.8V45H63zM7.2,45H9V46.8H7.2zM9,45H10.8V46.8H9zM12.6,45H14.4V46.8H12.6zM14.4,45H16.2V46.8H14.4zM16.2,45H18V46.8H16.2zM21.6,45H23.4V46.8H21.6zM28.8,45H30.6V46.8H28.8zM30.6,45H32.4V46.8H30.6zM34.2,45H36V46.8H34.2zM36,45H37.8V46.8H36zM37.8,45H39.6V46.8H37.8zM41.4,45H43.2V46.8H41.4zM43.2,45H45V46.8H43.2zM45,45H46.8V46.8H45zM48.6,45H50.4V46.8H48.6zM52.2,45H54V46.8H52.2zM54,45H55.8V46.8H54zM61.2,45H63V46.8H61.2zM64.8,45H66.6V46.8H64.8zM7.2,46.8H9V48.6H7.2zM18,46.8H19.8V48.6H18zM27,46.8H28.8V48.6H27zM43.2,46.8H45V48.6H43.2zM50.4,46.8H52.2V48.6H50.4zM63,46.8H64.8V48.6H63zM7.2,48.6H9V50.4H7.2zM12.6,48.6H14.4V50.4H12.6zM14.4,48.6H16.2V50.4H14.4zM16.2,48.6H18V50.4H16.2zM21.6,48.6H23.4V50.4H21.6zM25.2,48.6H27V50.4H25.2zM36,48.6H37.8V50.4H36zM41.4,48.6H43.2V50.4H41.4zM43.2,48.6H45V50.4H43.2zM45,48.6H46.8V50.4H45zM48.6,48.6H50.4V50.4H48.6zM50.4,48.6H52.2V50.4H50.4zM52.2,48.6H54V50.4H52.2zM55.8,48.6H57.6V50.4H55.8zM57.6,48.6H59.4V50.4H57.6zM61.2,48.6H63V50.4H61.2zM63,48.6H64.8V50.4H63zM7.2,50.4H9V52.2H7.2zM10.8,50.4H12.6V52.2H10.8zM12.6,50.4H14.4V52.2H12.6zM16.2,50.4H18V52.2H16.2zM18,50.4H19.8V52.2H18zM19.8,50.4H21.6V52.2H19.8zM21.6,50.4H23.4V52.2H21.6zM23.4,50.4H25.2V52.2H23.4zM25.2,50.4H27V52.2H25.2zM27,50.4H28.8V52.2H27zM28.8,50.4H30.6V52.2H28.8zM37.8,50.4H39.6V52.2H37.8zM43.2,50.4H45V52.2H43.2zM46.8,50.4H48.6V52.2H46.8zM50.4,50.4H52.2V52.2H50.4zM52.2,50.4H54V52.2H52.2zM54,50.4H55.8V52.2H54zM55.8,50.4H57.6V52.2H55.8zM57.6,50.4H59.4V52.2H57.6zM63,50.4H64.8V52.2H63zM21.6,52.2H23.4V54H21.6zM27,52.2H28.8V54H27zM32.4,52.2H34.2V54H32.4zM36,52.2H37.8V54H36zM37.8,52.2H39.6V54H37.8zM41.4,52.2H43.2V54H41.4zM43.2,52.2H45V54H43.2zM48.6,52.2H50.4V54H48.6zM50.4,52.2H52.2V54H50.4zM57.6,52.2H59.4V54H57.6zM61.2,52.2H63V54H61.2zM63,52.2H64.8V54H63zM64.8,52.2H66.6V54H64.8zM7.2,54H9V55.8H7.2zM9,54H10.8V55.8H9zM10.8,54H12.6V55.8H10.8zM12.6,54H14.4V55.8H12.6zM14.4,54H16.2V55.8H14.4zM16.2,54H18V55.8H16.2zM18,54H19.8V55.8H18zM25.2,54H27V55.8H25.2zM27,54H28.8V55.8H27zM28.8,54H30.6V55.8H28.8zM32.4,54H34.2V55.8H32.4zM34.2,54H36V55.8H34.2zM36,54H37.8V55.8H36zM37.8,54H39.6V55.8H37.8zM43.2,54H45V55.8H43.2zM45,54H46.8V55.8H45zM46.8,54H48.6V55.8H46.8zM48.6,54H50.4V55.8H48.6zM50.4,54H52.2V55.8H50.4zM54,54H55.8V55.8H54zM57.6,54H59.4V55.8H57.6zM61.2,54H63V55.8H61.2zM63,54H64.8V55.8H63zM7.2,55.8H9V57.6H7.2zM18,55.8H19.8V57.6H18zM21.6,55.8H23.4V57.6H21.6zM23.4,55.8H25.2V57.6H23.4zM27,55.8H28.8V57.6H27zM30.6,55.8H32.4V57.6H30.6zM32.4,55.8H34.2V57.6H32.4zM34.2,55.8H36V57.6H34.2zM36,55.8H37.8V57.6H36zM37.8,55.8H39.6V57.6H37.8zM39.6,55.8H41.4V57.6H39.6zM41.4,55.8H43.2V57.6H41.4zM45,55.8H46.8V57.6H45zM50.4,55.8H52.2V57.6H50.4zM57.6,55.8H59.4V57.6H57.6zM59.4,55.8H61.2V57.6H59.4zM61.2,55.8H63V57.6H61.2zM63,55.8H64.8V57.6H63zM7.2,57.6H9V59.4H7.2zM10.8,57.6H12.6V59.4H10.8zM12.6,57.6H14.4V59.4H12.6zM14.4,57.6H16.2V59.4H14.4zM18,57.6H19.8V59.4H18zM21.6,57.6H23.4V59.4H21.6zM23.4,57.6H25.2V59.4H23.4zM25.2,57.6H27V59.4H25.2zM27,57.6H28.8V59.4H27zM34.2,57.6H36V59.4H34.2zM36,57.6H37.8V59.4H36zM46.8,57.6H48.6V59.4H46.8zM50.4,57.6H52.2V59.4H50.4zM52.2,57.6H54V59.4H52.2zM54,57.6H55.8V59.4H54zM55.8,57.6H57.6V59.4H55.8zM57.6,57.6H59.4V59.4H57.6zM59.4,57.6H61.2V59.4H59.4zM64.8,57.6H66.6V59.4H64.8zM7.2,59.4H9V61.2H7.2zM10.8,59.4H12.6V61.2H10.8zM12.6,59.4H14.4V61.2H12.6zM14.4,59.4H16.2V61.2H14.4zM18,59.4H19.8V61.2H18zM21.6,59.4H23.4V61.2H21.6zM23.4,59.4H25.2V61.2H23.4zM25.2,59.4H27V61.2H25.2zM28.8,59.4H30.6V61.2H28.8zM34.2,59.4H36V61.2H34.2zM39.6,59.4H41.4V61.2H39.6zM41.4,59.4H43.2V61.2H41.4zM43.2,59.4H45V61.2H43.2zM45,59.4H46.8V61.2H45zM48.6,59.4H50.4V61.2H48.6zM50.4,59.4H52.2V61.2H50.4zM57.6,59.4H59.4V61.2H57.6zM59.4,59.4H61.2V61.2H59.4zM63,59.4H64.8V61.2H63zM64.8,59.4H66.6V61.2H64.8zM7.2,61.2H9V63H7.2zM10.8,61.2H12.6V63H10.8zM12.6,61.2H14.4V63H12.6zM14.4,61.2H16.2V63H14.4zM18,61.2H19.8V63H18zM21.6,61.2H23.4V63H21.6zM23.4,61.2H25.2V63H23.4zM25.2,61.2H27V63H25.2zM27,61.2H28.8V63H27zM28.8,61.2H30.6V63H28.8zM32.4,61.2H34.2V63H32.4zM34.2,61.2H36V63H34.2zM36,61.2H37.8V63H36zM43.2,61.2H45V63H43.2zM45,61.2H46.8V63H45zM46.8,61.2H48.6V63H46.8zM52.2,61.2H54V63H52.2zM54,61.2H55.8V63H54zM55.8,61.2H57.6V63H55.8zM7.2,63H9V64.8H7.2zM18,63H19.8V64.8H18zM27,63H28.8V64.8H27zM30.6,63H32.4V64.8H30.6zM34.2,63H36V64.8H34.2zM39.6,63H41.4V64.8H39.6zM45,63H46.8V64.8H45zM46.8,63H48.6V64.8H46.8zM54,63H55.8V64.8H54zM57.6,63H59.4V64.8H57.6zM59.4,63H61.2V64.8H59.4zM61.2,63H63V64.8H61.2zM7.2,64.8H9V66.6H7.2zM9,64.8H10.8V66.6H9zM10.8,64.8H12.6V66.6H10.8zM12.6,64.8H14.4V66.6H12.6zM14.4,64.8H16.2V66.6H14.4zM16.2,64.8H18V66.6H16.2zM18,64.8H19.8V66.6H18zM21.6,64.8H23.4V66.6H21.6zM25.2,64.8H27V66.6H25.2zM30.6,64.8H32.4V66.6H30.6zM32.4,64.8H34.2V66.6H32.4zM34.2,64.8H36V66.6H34.2zM37.8,64.8H39.6V66.6H37.8zM41.4,64.8H43.2V66.6H41.4zM43.2,64.8H45V66.6H43.2zM46.8,64.8H48.6V66.6H46.8zM48.6,64.8H50.4V66.6H48.6zM50.4,64.8H52.2V66.6H50.4zM52.2,64.8H54V66.6H52.2zM55.8,64.8H57.6V66.6H55.8zM63,64.8H64.8V66.6H63z" id="qr-path" fill="#000000" fill-opacity="1" fill-rule="nonzero" stroke="none" /></svg>